<svg height="300" width="360" xmlns="http://www.w3.org/2000/svg">
    <polygon points="100,20 180,60 180,140 100,180 20,140 20,60 " style="fill:#ffff00;stroke:red;stroke-width:20.0"/>
    <polygon points="100,20 180,60 180,140 100,180 20,140 20,60 " style="fill:#ffff00;stroke:red;stroke-width:20.0"/>
    <polygon points="100,20 180,60 180,140 100,180 20,140 20,60 " style="fill:#ffff00;stroke:red;stroke-width:20.0"/>
    <polygon points="100,20 180,60 180,140 100,180 20,140 20,60 " style="fill:#ffff00;stroke:red;stroke-width:20.0"/>
    <polygon points="100,20 180,60 180,140 100,180 20,140 20,100 " style="fill:#ffff00;stroke:red;stroke-width:20.0"/>
    <polygon points="100,20 180,60 180,140 100,180 20,140 20,60 " style="fill:#ffff00;stroke:red;stroke-width:20.0"/>

</svg>